<?xml version="1.0" encoding="utf-8"?>
<svg width="200px" height="100px" viewBox="0 0 200 100" version="1.1" xmlns:xlink="http://www.w3.org/1999/xlink" xmlns="http://www.w3.org/2000/svg">
  <defs>
    <linearGradient gradientUnits="userSpaceOnUse" x1="2.0537276" y1="13.898506" x2="25.839695" y2="37.677925" id="gradient_1">
      <stop offset="0%" stop-color="#00A6FF" />
      <stop offset="100%" stop-color="#5D00FF" />
    </linearGradient>
    <linearGradient gradientUnits="userSpaceOnUse" x1="-8.400001" y1="-3.6000004" x2="31.560003" y2="31.32" id="gradient_2">
      <stop offset="0%" stop-color="#5D00FF" />
      <stop offset="100%" stop-color="#9508C4" />
    </linearGradient>
    <path d="M0 0L200 0L200 100L0 100L0 0Z" id="path_1" />
    <path d="M0 0L80 0L80 80L0 80L0 0Z" id="path_2" />
    <path d="M0 0L80 0L80 80L0 80L0 0L0 0Z" id="path_3" />
    <path d="M0 0L60 0L60 60L0 60L0 0L0 0Z" id="path_4" />
    <path d="M0 0L42 0L42 29L0 29L0 0Z" id="path_5" />
    <path d="M0 0L42 0L42 29L0 29L0 0L0 0Z" id="path_6" />
    <clipPath id="clip_1">
      <use xlink:href="#path_1" />
    </clipPath>
    <clipPath id="clip_2">
      <use xlink:href="#path_2" />
    </clipPath>
    <clipPath id="clip_3">
      <use xlink:href="#path_5" />
    </clipPath>
    <clipPath id="mask_1">
      <use xlink:href="#path_3" />
    </clipPath>
    <clipPath id="mask_2">
      <use xlink:href="#path_4" />
    </clipPath>
    <clipPath id="mask_3">
      <use xlink:href="#path_6" />
    </clipPath>
  </defs>
  <g id="Quadro" clip-path="url(#clip_1)">
    <path d="M0 0L200 0L200 100L0 100L0 0Z" id="Quadro" fill="none" fill-rule="evenodd" stroke="none" />
    <g id="CPU_icon_2023-04-14(FINISHED)" clip-path="url(#clip_2)" transform="translate(7.9999657 10)">
      <path d="M0 0L80 0L80 80L0 80L0 0Z" id="CPU_icon_2023-04-14(FINISHED)" fill="none" fill-rule="evenodd" stroke="none" />
      <g id="Grupo-de-Máscaras">
        <path d="M0 0L80 0L80 80L0 80L0 0L0 0Z" id="path_1" fill="none" stroke="none" />
        <g clip-path="url(#mask_1)">
          <g id="Quadro" transform="translate(0 -3.8146973E-06)">
            <path d="M0 3.8147e-06L80 3.8147e-06L80 80L0 80L0 3.8147e-06L0 3.8147e-06Z" id="Quadro#1" fill="none" fill-rule="evenodd" stroke="none" />
            <g id="Grupo-de-Máscaras" transform="translate(4.5776367E-05 0)">
              <path d="M0 0L80 0L80 80L0 80L0 0L0 0Z" id="path_1" fill="none" stroke="none" />
              <g clip-path="url(#mask_1)">
                <g id="Layers">
                  <path d="M0 0L80 0L80 80L0 80L0 0L0 0Z" id="Layers#1" fill="none" fill-rule="evenodd" stroke="none" />
                  <path d="M10.06 18C10.06 18 10 61 10 61C10.01 67.74 9.51 69.86 17 70C17 70 61 70 61 70C67.74 69.99 69.86 70.49 70 63C70 63 70 19 70 19C69.98 11.27 70.19 10.12 62.06 10.06C62.06 10.06 16.19 9.88 16.06 9.94C9.39 10 10.09 12.35 10.06 18L10.06 18L10.06 18Z" id="Layer_3" fill="#36404D" stroke="#000000" stroke-width="1" />
                  <path d="M19.6 19.07C17.06 23.01 20.86 24.04 22.4 22.93C23.91 21.83 24.16 17.87 19.6 19.07L19.6 19.07L19.6 19.07ZM57.6 19.07C55.06 23.01 58.86 24.04 60.4 22.93C61.91 21.83 62.16 17.87 57.6 19.07L57.6 19.07L57.6 19.07ZM19.6 57.07C17.06 61.01 20.86 62.04 22.4 60.93C23.91 59.83 24.16 55.87 19.6 57.07L19.6 57.07L19.6 57.07ZM57.6 57.07C55.06 61.01 58.86 62.04 60.4 60.93C61.91 59.83 62.16 55.87 57.6 57.07L57.6 57.07L57.6 57.07Z" id="Layer_5" fill="#BDCCD4" fill-rule="evenodd" stroke="#000000" stroke-width="1" />
                  <path d="M11.94 19C11.94 19 11.88 64.75 11.88 64.75C11.88 66.88 11.91 67.89 15.25 67.94C15.27 67.94 61.83 68 61.83 68C67 68.04 68.13 68.87 68.09 63.78C68.09 63.78 68 21 68 21C68.25 11.38 68.6 11.66 61 12C61 12 15.66 11.91 15.66 11.91C11.31 11.78 11.94 12.66 11.94 19L11.94 19L11.94 19ZM20.26 18.74C24.91 18.97 23.58 22.66 21.74 23.26C19.83 23.87 16.68 21.62 20.26 18.74L20.26 18.74L20.26 18.74ZM58.26 18.74C62.91 18.97 61.58 22.66 59.74 23.26C57.83 23.87 54.68 21.62 58.26 18.74L58.26 18.74L58.26 18.74ZM20.26 56.74C24.91 56.97 23.58 60.66 21.74 61.26C19.83 61.87 16.68 59.62 20.26 56.74L20.26 56.74L20.26 56.74ZM58.26 56.74C62.91 56.97 61.58 60.66 59.74 61.26C57.83 61.87 54.68 59.62 58.26 56.74L58.26 56.74L58.26 56.74Z" id="Layer_4" fill="#4B6477" fill-rule="evenodd" stroke="#000000" stroke-width="1" />
                  <path d="M16 2C16 2 16 10 16 10C16 10 18 10 18 10C18 10 18 4 18 4C18 4 20 4 20 4C20 4 20 10 20 10C20 10 22 10 22 10C22 10 22 2 22 2C22 2 16 2 16 2L16 2L16 2ZM24 2C24 2 24 10 24 10C24 10 26 10 26 10C26 10 26 4 26 4C26 4 28 4 28 4C28 4 28 10 28 10C28 10 30 10 30 10C30 10 30 2 30 2C30 2 24 2 24 2L24 2L24 2ZM32 2C32 2 32 10 32 10C32 10 34 10 34 10C34 10 34 4 34 4C34 4 36 4 36 4C36 4 36 10 36 10C36 10 38 10 38 10C38 10 38 2 38 2C38 2 32 2 32 2L32 2L32 2ZM40 2C40 2 40 10 40 10C40 10 42 10 42 10C42 10 42 4 42 4C42 4 44 4 44 4C44 4 44 10 44 10C44 10 46 10 46 10C46 10 46 2 46 2C46 2 40 2 40 2L40 2L40 2ZM48 2C48 2 48 10 48 10C48 10 50 10 50 10C50 10 50 4 50 4C50 4 52 4 52 4C52 4 52 10 52 10C52 10 54 10 54 10C54 10 54 2 54 2C54 2 48 2 48 2L48 2L48 2ZM56 2C56 2 56 10 56 10C56 10 58 10 58 10C58 10 58 4 58 4C58 4 60 4 60 4C60 4 60 10 60 10C60 10 62 10 62 10C62 10 62 2 62 2C62 2 56 2 56 2L56 2L56 2ZM2 18C2 18 2 24 2 24C2 24 10 24 10 24C10 24 10 22 10 22C10 22 4 22 4 22C4 22 4 20 4 20C4 20 10 20 10 20C10 20 10 18 10 18C10 18 2 18 2 18L2 18L2 18ZM70 18C70 18 70 20 70 20C70 20 76 20 76 20C76 20 76 22 76 22C76 22 70 22 70 22C70 22 70 24 70 24C70 24 78 24 78 24C78 24 78 18 78 18C78 18 70 18 70 18L70 18L70 18ZM2 26C2 26 2 32 2 32C2 32 10 32 10 32C10 32 10 30 10 30C10 30 4 30 4 30C4 30 4 28 4 28C4 28 10 28 10 28C10 28 10 26 10 26C10 26 2 26 2 26L2 26L2 26ZM70 26C70 26 70 28 70 28C70 28 76 28 76 28C76 28 76 30 76 30C76 30 70 30 70 30C70 30 70 32 70 32C70 32 78 32 78 32C78 32 78 26 78 26C78 26 70 26 70 26L70 26L70 26ZM2 34C2 34 2 40 2 40C2 40 10 40 10 40C10 40 10 38 10 38C10 38 4 38 4 38C4 38 4 36 4 36C4 36 10 36 10 36C10 36 10 34 10 34C10 34 2 34 2 34L2 34L2 34ZM70 34C70 34 70 36 70 36C70 36 76 36 76 36C76 36 76 38 76 38C76 38 70 38 70 38C70 38 70 40 70 40C70 40 78 40 78 40C78 40 78 34 78 34C78 34 70 34 70 34L70 34L70 34ZM2 42C2 42 2 48 2 48C2 48 10 48 10 48C10 48 10 46 10 46C10 46 4 46 4 46C4 46 4 44 4 44C4 44 10 44 10 44C10 44 10 42 10 42C10 42 2 42 2 42L2 42L2 42ZM70 42C70 42 70 44 70 44C70 44 76 44 76 44C76 44 76 46 76 46C76 46 70 46 70 46C70 46 70 48 70 48C70 48 78 48 78 48C78 48 78 42 78 42C78 42 70 42 70 42L70 42L70 42ZM2 50C2 50 2 56 2 56C2 56 10 56 10 56C10 56 10 54 10 54C10 54 4 54 4 54C4 54 4 52 4 52C4 52 10 52 10 52C10 52 10 50 10 50C10 50 2 50 2 50L2 50L2 50ZM70 50C70 50 70 52 70 52C70 52 76 52 76 52C76 52 76 54 76 54C76 54 70 54 70 54C70 54 70 56 70 56C70 56 78 56 78 56C78 56 78 50 78 50C78 50 70 50 70 50L70 50L70 50ZM2 58C2 58 2 64 2 64C2 64 10 64 10 64C10 64 10 62 10 62C10 62 4 62 4 62C4 62 4 60 4 60C4 60 10 60 10 60C10 60 10 58 10 58C10 58 2 58 2 58L2 58L2 58ZM70 58C70 58 70 60 70 60C70 60 76 60 76 60C76 60 76 62 76 62C76 62 70 62 70 62C70 62 70 64 70 64C70 64 78 64 78 64C78 64 78 58 78 58C78 58 70 58 70 58L70 58L70 58ZM16 70C16 70 16 78 16 78C16 78 22 78 22 78C22 78 22 70 22 70C22 70 20 70 20 70C20 70 20 76 20 76C20 76 18 76 18 76C18 76 18 70 18 70C18 70 16 70 16 70L16 70L16 70ZM24 70C24 70 24 78 24 78C24 78 30 78 30 78C30 78 30 70 30 70C30 70 28 70 28 70C28 70 28 76 28 76C28 76 26 76 26 76C26 76 26 70 26 70C26 70 24 70 24 70L24 70L24 70ZM32 70C32 70 32 78 32 78C32 78 38 78 38 78C38 78 38 70 38 70C38 70 36 70 36 70C36 70 36 76 36 76C36 76 34 76 34 76C34 76 34 70 34 70C34 70 32 70 32 70L32 70L32 70ZM40 70C40 70 40 78 40 78C40 78 46 78 46 78C46 78 46 70 46 70C46 70 44 70 44 70C44 70 44 76 44 76C44 76 42 76 42 76C42 76 42 70 42 70C42 70 40 70 40 70L40 70L40 70ZM48 70C48 70 48 78 48 78C48 78 54 78 54 78C54 78 54 70 54 70C54 70 52 70 52 70C52 70 52 76 52 76C52 76 50 76 50 76C50 76 50 70 50 70C50 70 48 70 48 70L48 70L48 70ZM56 70C56 70 56 78 56 78C56 78 62 78 62 78C62 78 62 70 62 70C62 70 60 70 60 70C60 70 60 76 60 76C60 76 58 76 58 76C58 76 58 70 58 70C58 70 56 70 56 70L56 70L56 70Z" id="Layer_1" fill="#F5C276" fill-rule="evenodd" stroke="#000000" stroke-width="1" />
                  <path d="M18 4C18 4 18 10 18 10C18 10 20 10 20 10C20 10 20 4 20 4C20 4 18 4 18 4L18 4L18 4ZM26 4C26 4 26 10 26 10C26 10 28 10 28 10C28 10 28 4 28 4C28 4 26 4 26 4L26 4L26 4ZM34 4C34 4 34 10 34 10C34 10 36 10 36 10C36 10 36 4 36 4C36 4 34 4 34 4L34 4L34 4ZM42 4C42 4 42 10 42 10C42 10 44 10 44 10C44 10 44 4 44 4C44 4 42 4 42 4L42 4L42 4ZM50 4C50 4 50 10 50 10C50 10 52 10 52 10C52 10 52 4 52 4C52 4 50 4 50 4L50 4L50 4ZM58 4C58 4 58 10 58 10C58 10 60 10 60 10C60 10 60 4 60 4C60 4 58 4 58 4L58 4L58 4ZM4 20C4 20 4 22 4 22C4 22 10 22 10 22C10 22 10 20 10 20C10 20 4 20 4 20L4 20L4 20ZM70 20C70 20 70 22 70 22C70 22 76 22 76 22C76 22 76 20 76 20C76 20 70 20 70 20L70 20L70 20ZM4 28C4 28 4 30 4 30C4 30 10 30 10 30C10 30 10 28 10 28C10 28 4 28 4 28L4 28L4 28ZM70 28C70 28 70 30 70 30C70 30 76 30 76 30C76 30 76 28 76 28C76 28 70 28 70 28L70 28L70 28ZM4 36C4 36 4 38 4 38C4 38 10 38 10 38C10 38 10 36 10 36C10 36 4 36 4 36L4 36L4 36ZM70 36C70 36 70 38 70 38C70 38 76 38 76 38C76 38 76 36 76 36C76 36 70 36 70 36L70 36L70 36ZM4 44C4 44 4 46 4 46C4 46 10 46 10 46C10 46 10 44 10 44C10 44 4 44 4 44L4 44L4 44ZM70 44C70 44 70 46 70 46C70 46 76 46 76 46C76 46 76 44 76 44C76 44 70 44 70 44L70 44L70 44ZM4 52C4 52 4 54 4 54C4 54 10 54 10 54C10 54 10 52 10 52C10 52 4 52 4 52L4 52L4 52ZM70 52C70 52 70 54 70 54C70 54 76 54 76 54C76 54 76 52 76 52C76 52 70 52 70 52L70 52L70 52ZM4 60C4 60 4 62 4 62C4 62 10 62 10 62C10 62 10 60 10 60C10 60 4 60 4 60L4 60L4 60ZM70 60C70 60 70 62 70 62C70 62 76 62 76 62C76 62 76 60 76 60C76 60 70 60 70 60L70 60L70 60ZM18 70C18 70 18 76 18 76C18 76 20 76 20 76C20 76 20 70 20 70C20 70 18 70 18 70L18 70L18 70ZM26 70C26 70 26 76 26 76C26 76 28 76 28 76C28 76 28 70 28 70C28 70 26 70 26 70L26 70L26 70ZM34 70C34 70 34 76 34 76C34 76 36 76 36 76C36 76 36 70 36 70C36 70 34 70 34 70L34 70L34 70ZM42 70C42 70 42 76 42 76C42 76 44 76 44 76C44 76 44 70 44 70C44 70 42 70 42 70L42 70L42 70ZM50 70C50 70 50 76 50 76C50 76 52 76 52 76C52 76 52 70 52 70C52 70 50 70 50 70L50 70L50 70ZM58 70C58 70 58 76 58 76C58 76 60 76 60 76C60 76 60 70 60 70C60 70 58 70 58 70L58 70L58 70Z" id="Layer_2" fill="#FFEEA3" fill-rule="evenodd" stroke="#000000" stroke-width="1" />
                </g>
              </g>
            </g>
          </g>
        </g>
      </g>
    </g>
    <g id="Agrupar" transform="translate(80.00001 0)">
      <g id="Grupo-de-Máscaras">
        <path d="M0 0L80 0L80 80L0 80L0 0L0 0Z" id="path_1" fill="none" fill-rule="evenodd" stroke="none" />
        <g clip-path="url(#mask_1)">
          <g id="Quadro">
            <path d="M0 0L80 0L80 80L0 80L0 0L0 0Z" id="Quadro#1" fill="none" fill-rule="evenodd" stroke="none" />
            <g id="Grupo-de-Máscaras">
              <path d="M0 0L80 0L80 80L0 80L0 0L0 0Z" id="path_1" fill="none" fill-rule="evenodd" stroke="none" />
              <g clip-path="url(#mask_1)">
                <g id="Layer">
                  <path d="M0 0L80 0L80 80L0 80L0 0L0 0Z" id="Layer#1" fill="none" fill-rule="evenodd" stroke="none" />
                  <path d="M64.4776 1.19403C64.4776 1.19403 64.4776 22.6866 64.4776 22.6866C64.4776 22.6866 58.5075 22.6866 58.5075 22.6866C58.5075 35.7015 61.7552 64.5851 51.1284 73.0746C42.0657 80.3224 26.5433 78.806 15.5224 78.806C15.5224 78.806 15.5224 57.3134 15.5224 57.3134C21.2537 57.0507 27.7851 56.3582 31.3552 51.2119C33.7552 47.7612 33.4209 43.403 33.4328 39.403C33.4328 39.403 33.4328 1.19403 33.4328 1.19403C33.4328 1.19403 64.4776 1.19403 64.4776 1.19403L64.4776 1.19403L64.4776 1.19403Z" id="Layer_1" fill="url(#gradient_1)" fill-rule="evenodd" stroke="#000000" stroke-width="1" />
                </g>
              </g>
            </g>
          </g>
        </g>
      </g>
      <g id="Grupo-de-Máscaras" transform="translate(39.266693 40.000008)">
        <path d="M0 0L60 0L60 60L0 60L0 0L0 0Z" id="path_1" fill="none" fill-rule="evenodd" stroke="none" />
        <g clip-path="url(#mask_2)">
          <g id="Quadro">
            <path d="M0 0L60 0L60 60L0 60L0 0L0 0Z" id="Quadro#1" fill="none" fill-rule="evenodd" stroke="none" />
            <g id="Grupo-de-Máscaras">
              <path d="M0 0L60 0L60 60L0 60L0 0L0 0Z" id="path_1" fill="none" fill-rule="evenodd" stroke="none" />
              <g clip-path="url(#mask_2)">
                <g id="Layer">
                  <path d="M0 0L60 0L60 60L0 60L0 0L0 0Z" id="Layer#1" fill="none" fill-rule="evenodd" stroke="none" />
                  <path d="M8.4 3.6C8.4 3.6 8.4 12 8.4 12C8.4 12 24 12 24 12C24 12 24 56.4 24 56.4C24 56.4 34.8 56.4 34.8 56.4C34.8 56.4 34.8 12 34.8 12C34.8 12 50.4 12 50.4 12C50.4 12 50.4 3.6 50.4 3.6C50.4 3.6 8.4 3.6 8.4 3.6L8.4 3.6L8.4 3.6Z" id="Seleção" fill="url(#gradient_2)" fill-rule="evenodd" stroke="#000000" stroke-width="1" />
                </g>
              </g>
            </g>
          </g>
        </g>
      </g>
      <g id="ECH_Icon_2023-04-14(FINISHED)" clip-path="url(#clip_3)" transform="translate(78.2667 72.00001)">
        <path d="M0 0L42 0L42 29L0 29L0 0Z" id="ECH_Icon_2023-04-14(FINISHED)" fill="none" fill-rule="evenodd" stroke="none" />
        <g id="Grupo-de-Máscaras">
          <path d="M0 0L42 0L42 29L0 29L0 0L0 0Z" id="path_1" fill="none" fill-rule="evenodd" stroke="none" />
          <g clip-path="url(#mask_3)">
            <g id="Quadro">
              <path d="M0 0L42 0L42 29L0 29L0 0L0 0Z" id="Quadro#1" fill="none" fill-rule="evenodd" stroke="none" />
              <g id="Grupo-de-Máscaras" transform="translate(6.1035156E-05 0)">
                <path d="M0 0L42 0L42 29L0 29L0 0L0 0Z" id="path_1" fill="none" fill-rule="evenodd" stroke="none" />
                <g clip-path="url(#mask_3)">
                  <g id="Layer">
                    <path d="M0 0L42 0L42 29L0 29L0 0L0 0Z" id="Layer#1" fill="none" fill-rule="evenodd" stroke="none" />
                    <path d="M28 6C28 6 28 23 28 23C28 23 31 23 31 23C31 21.91 31.27 15.52 31.12 15.25C31.15 13.4 33 12.75 34.62 12.62C35.43 13.13 35.25 12.62 36.75 13.88C36.75 14 37 21.7 37 23C37 23 40 23 40 23C40 15.68 41.19 8.23 31 11C31 11 31 6 31 6C31 6 28 6 28 6L28 6L28 6ZM13 19C10.2 19 10.04 19 9.95999 18.96C9.28999 19.64 8.99999 21 7.97999 20.93C6.88999 20.96 5.98999 20.68 5.21999 19.73C4.62999 19 4.57999 18.58 3.99999 17C3.99999 17 13 17 13 17C12.74 14.75 12.66 12.45 10.57 11.02C8.37999 9.53 2.16999 9.3 1.23999 15.04C-0.0700071 23.2 9.07999 25.96 13 19L13 19L13 19ZM27 19.01C25.15 19.27 25.89 18.93 24.07 18.98C23.56 19.36 22.55 20.56 21.25 20.62C20.25 20.68 17.88 19.37 17.99 16.41C18.03 14.01 19.02 12.64 21.11 12.47C21.14 12.43 22.13 12.42 23.87 14.04C23.87 13.92 25.52 13.91 27.02 13.93C26.03 12.57 25.64 11.39 23.78 10.6C14.82 6.81 11.44 21.46 20.04 22.76C21.54 22.98 23.29 22.81 24.59 21.98C25.93 21.12 26.22 20.23 27 19.01L27 19.01L27 19.01ZM4.96 13C5.47 12.4 6.47 12.12 7.09 12.13C7.82 12.13 8.73 12.2 9.09 12.96C9.13 12.96 10.07 14.96 10 15C9.89999 14.87 3.98 15 3.98 15C3.98 14.6 4.53 13.33 4.96 13L4.96 13L4.96 13Z" id="Layer_1" fill="#B700FF" fill-rule="evenodd" stroke="#000000" stroke-width="1" />
                  </g>
                </g>
              </g>
            </g>
          </g>
        </g>
      </g>
    </g>
  </g>
</svg>